<?xml version="1.0" encoding="utf-8"?><svg xmlns="http://www.w3.org/2000/svg" xmlns:xlink="http://www.w3.org/1999/xlink"><symbol viewBox="0 0 24 24" id="add" xmlns="http://www.w3.org/2000/svg"><path d="M19 13h-6v6h-2v-6H5v-2h6V5h2v6h6v2z"/></symbol><symbol viewBox="0 0 24 24" id="backup" xmlns="http://www.w3.org/2000/svg"><path d="M12 2C6.5 2 2 6.5 2 12s4.5 10 10 10 10-4.5 10-10S17.5 2 12 2zm0 18c-4.4 0-8-3.6-8-8s3.6-8 8-8 8 3.6 8 8-3.6 8-8 8z"/><path d="M12.5 7H11v6l5.2 3.1.8-1.2-4.5-2.7V7z"/></symbol><symbol viewBox="0 0 24 24" id="chat" xmlns="http://www.w3.org/2000/svg"><path d="M20 2H4c-1.1 0-2 .9-2 2v18l4-4h14c1.1 0 2-.9 2-2V4c0-1.1-.9-2-2-2z"/></symbol><symbol viewBox="0 0 24 24" id="checkmark" xmlns="http://www.w3.org/2000/svg"><path d="M9 16.2L4.8 12l-1.4 1.4L9 19 21 7l-1.4-1.4L9 16.2z"/></symbol><symbol viewBox="0 0 24 24" id="clone" xmlns="http://www.w3.org/2000/svg"><path d="M16 1H4c-1.1 0-2 .9-2 2v14h2V3h12V1zm3 4H8c-1.1 0-2 .9-2 2v14c0 1.1.9 2 2 2h11c1.1 0 2-.9 2-2V7c0-1.1-.9-2-2-2zm0 16H8V7h11v14z"/></symbol><symbol viewBox="0 0 24 24" id="close" xmlns="http://www.w3.org/2000/svg"><path d="M19 6.4L17.6 5 12 10.6 6.4 5 5 6.4l5.6 5.6L5 17.6 6.4 19l5.6-5.6 5.6 5.6 1.4-1.4-5.6-5.6L19 6.4z"/></symbol><symbol viewBox="0 0 24 24" id="collapse" xmlns="http://www.w3.org/2000/svg"><path d="M12 8l-6 6 1.4 1.4 4.6-4.6 4.6 4.6L18 14l-6-6z"/></symbol><symbol viewBox="0 0 24 24" id="configure" xmlns="http://www.w3.org/2000/svg"><path d="M2 11h20v2H2z"/><circle cx="15.1" cy="12" r="1.9"/><path d="M2 17h20v2H2z"/><circle cx="6.1" cy="18" r="1.9"/><path d="M2 5h20v2H2z"/><circle cx="6.1" cy="6" r="1.9"/></symbol><symbol viewBox="0 0 24 24" id="dashboard" xmlns="http://www.w3.org/2000/svg"><path d="M3 13h8V3H3v10zm0 8h8v-6H3v6zm10 0h8V11h-8v10zm0-18v6h8V3h-8z"/></symbol><symbol viewBox="0 0 24 24" id="delete" xmlns="http://www.w3.org/2000/svg"><path d="M6 19c0 1.1.9 2 2 2h8c1.1 0 2-.9 2-2V7H6v12zM19 4h-3.5l-1-1h-5l-1 1H5v2h14V4z"/></symbol><symbol viewBox="0 0 32 32" id="doc-type-csv" xmlns="http://www.w3.org/2000/svg"><path d="M26 0H6C4.133 0 2.667 1.867 2.667 4v24c0 2.133 1.467 4 3.333 4h20c1.867 0 3.333-1.867 3.333-4V4c0-2.133-1.467-4-3.333-4z"/><path fill="#fff" stroke="#fff" stroke-width=".667" stroke-miterlimit="10" d="M11.2 18c0 1.067-.267 1.867-.8 2.4s-1.2.8-2.133.8S6.534 20.8 6 20.133s-.667-1.6-.667-2.933v-1.467c0-1.2.267-2.267.8-2.933s1.2-1.067 2.267-1.067c.933 0 1.6.267 2.133.8s.8 1.333.8 2.4H9.466c0-.667-.133-1.067-.267-1.333-.133-.133-.533-.267-.933-.267s-.8.133-.933.533-.267.933-.267 1.733v1.733c0 .933.133 1.467.267 1.867s.533.533.933.533.8-.133.933-.4.267-.667.267-1.333h1.733z"/><path fill="#fff" stroke="#fff" stroke-width=".333" stroke-miterlimit="10" d="M17.467 18.8c0-.4-.133-.533-.267-.8-.267-.133-.533-.4-1.067-.533-.533-.267-.933-.4-1.2-.533-1.067-.667-1.6-1.467-1.6-2.533 0-.533.133-.933.4-1.467.267-.4.667-.667 1.067-.933.533-.267 1.067-.4 1.6-.4s1.067.133 1.6.4c.4.267.8.533 1.067 1.067.267.4.4.933.4 1.6h-2c0-.4-.133-.667-.267-.933-.267-.267-.533-.267-.8-.267-.4 0-.667.133-.8.267-.267.133-.267.4-.267.667s.133.533.267.667c.267.133.667.4 1.2.667s1.067.4 1.333.667c.933.533 1.333 1.467 1.333 2.4 0 .8-.267 1.467-.8 2s-1.2.667-2.133.667c-.667 0-1.2-.133-1.733-.4s-.933-.667-1.2-1.2a3.686 3.686 0 0 1-.4-1.733h2c0 .533.133.933.4 1.067s.533.4 1.067.4c.267 0 .533-.133.8-.267v-.533zm6.4-1.2l1.467-5.867h2L24.801 21.2h-1.867l-2.533-9.467h2l1.467 5.867z"/></symbol><symbol viewBox="0 0 24 24" id="doc-type-file" xmlns="http://www.w3.org/2000/svg"><path d="M19.5 0h-15C3.1 0 2 1.4 2 3v18c0 1.6 1.1 3 2.5 3h15c1.4 0 2.5-1.4 2.5-3V3c0-1.6-1.1-3-2.5-3z"/><path fill="#fff" stroke="#fff" stroke-width=".5" stroke-miterlimit="10" d="M20.4 13.5c0 .8-.2 1.4-.6 1.8s-.9.6-1.6.6c-.7 0-1.3-.3-1.7-.8s-.6-1.2-.6-2.2v-1.1c0-.9.2-1.7.6-2.2s.9-.8 1.7-.8c.7 0 1.2.2 1.6.6s.6 1 .6 1.8h-1.3c0-.5-.1-.8-.2-1s-.4-.3-.7-.3c-.3 0-.6.1-.7.4s-.2.7-.2 1.3V13c0 .7.1 1.1.2 1.4s.4.4.7.4c.3 0 .6-.1.7-.3s.2-.5.2-1h1.3z"/><path fill="#fff" d="M8.9 14.1c0 1-.9 1.9-1.9 1.9H3.9V8.6H7c1 0 1.9.9 1.9 1.9v3.6zm-3.1 0H7v-3.7H5.8v3.7zm9.1-1.1c0 1-.2 1.7-.7 2.3-.4.5-1.1.8-1.9.8s-1.4-.3-1.9-.8c-.3-.6-.5-1.3-.5-2.3v-1.2c0-1 .2-1.8.7-2.3.4-.6 1.1-.8 1.9-.8s1.4.3 1.8.8c.4.5.7 1.3.7 2.3l-.1 1.2zm-3.1 1.1H13v-3.7h-1.2v3.7z"/></symbol><symbol viewBox="0 0 24 24" id="doc-type-pdf" xmlns="http://www.w3.org/2000/svg"><path d="M19.5 0h-15C3.1 0 2 1.4 2 3v18c0 1.6 1.1 3 2.5 3h15c1.4 0 2.5-1.4 2.5-3V3c0-1.6-1.1-3-2.5-3z"/><path fill="#fff" d="M20.1 10.5h-1.9v1.2h1.9v1.9h-1.9v2.5h-1.9V8.7h3.8zM8.9 11.8c0 1-.9 1.9-1.9 1.9H5.8v2.4H3.9V8.7H7c1 0 1.9.9 1.9 1.9v1.2zm-3.1 0H7v-1.2H5.8v1.2zm9.3 2.4c0 1-.9 1.9-1.9 1.9h-3.1V8.7h3.1c1 0 1.9.9 1.9 1.9v3.6zm-3.1 0h1.2v-3.7H12v3.7z"/></symbol><symbol viewBox="0 0 24 24" id="doc-type-ppt" xmlns="http://www.w3.org/2000/svg"><path d="M19.5 0h-15C3.1 0 2 1.4 2 3v18c0 1.6 1.1 3 2.5 3h15c1.4 0 2.5-1.4 2.5-3V3c0-1.6-1.1-3-2.5-3z"/><path fill="#fff" d="M8.9 11.8c0 1-.9 1.9-1.9 1.9H5.8v2.4H3.9V8.7H7c1 0 1.9.9 1.9 1.9v1.2zm-3.1 0H7v-1.2H5.8v1.2zm8.7 0c0 1-.9 1.9-1.9 1.9h-1.2v2.4H9.5V8.7h3.1c1 0 1.9.9 1.9 1.9v1.2zm-3.1 0h1.2v-1.2h-1.2v1.2zm8.9-1.3h-1.5v5.6h-1.9v-5.6h-1.7V8.6h5.2v1.9z"/></symbol><symbol viewBox="0 0 24 24" id="doc-type-xls" xmlns="http://www.w3.org/2000/svg"><path d="M19.5 0h-15C3.1 0 2 1.4 2 3v18c0 1.6 1.1 3 2.5 3h15c1.4 0 2.5-1.4 2.5-3V3c0-1.6-1.1-3-2.5-3z"/><path fill="#fff" stroke="#fff" stroke-width=".25" stroke-miterlimit="10" d="M6.4 11.2l1-2.4h1.7l-1.8 3.6L9.2 16H7.5l-1.1-2.5L5.3 16H3.6l1.8-3.7-1.8-3.5h1.7l1.1 2.4z"/><path fill="#fff" d="M12.3 14.2h2.4v1.9h-4.3V8.7h1.9v5.5z"/><path fill="#fff" stroke="#fff" stroke-width=".25" stroke-miterlimit="10" d="M19.1 14.1c0-.3-.1-.4-.2-.6-.2-.1-.4-.3-.8-.4-.4-.2-.7-.3-.9-.4-.8-.5-1.2-1.1-1.2-1.9 0-.4.1-.7.3-1.1.2-.3.5-.5.8-.7.4-.2.8-.3 1.2-.3s.8.1 1.2.3c.3.2.6.4.8.8.2.3.3.7.3 1.2h-1.5c0-.3-.1-.5-.2-.7-.2-.2-.4-.2-.6-.2-.3 0-.5.1-.6.2-.2.1-.2.3-.2.5s.1.4.2.5c.2.1.5.3.9.5s.8.3 1 .5c.7.4 1 1.1 1 1.8 0 .6-.2 1.1-.6 1.5s-.9.5-1.6.5c-.5 0-.9-.1-1.3-.3s-.7-.5-.9-.9c-.2-.4-.3-.8-.3-1.3h1.5c0 .4.1.7.3.8.2.2.4.3.8.3.2 0 .4-.1.6-.2v-.4z"/></symbol><symbol viewBox="0 0 24 24" id="download" xmlns="http://www.w3.org/2000/svg"><path d="M19 9h-4V3H9v6H5l7 7 7-7zM5 18v2h14v-2H5z"/></symbol><symbol viewBox="0 0 24 24" id="edit" xmlns="http://www.w3.org/2000/svg"><path d="M3 17.2V21h3.8l11-11.1L14 6.1 3 17.2zM20.7 7c.4-.4.4-1 0-1.4l-2.3-2.3c-.4-.4-1-.4-1.4 0l-1.8 1.8L19 8.9c-.1 0 1.7-1.9 1.7-1.9z"/></symbol><symbol viewBox="0 0 24 24" id="error" xmlns="http://www.w3.org/2000/svg"><path d="M12 2C6.5 2 2 6.5 2 12s4.5 10 10 10 10-4.5 10-10S17.5 2 12 2zm5 13.6L15.6 17 12 13.4 8.4 17 7 15.6l3.6-3.6L7 8.4 8.4 7l3.6 3.6L15.6 7 17 8.4 13.4 12l3.6 3.6z"/></symbol><symbol viewBox="0 0 24 24" id="expand" xmlns="http://www.w3.org/2000/svg"><path d="M16.6 8.6L12 13.2 7.4 8.6 6 10l6 6 6-6-1.4-1.4z"/></symbol><symbol viewBox="0 0 18 18" id="favorite" xmlns="http://www.w3.org/2000/svg"><path d="M9 11.3l3.7 2.7-1.4-4.4L15 7h-4.6L9 2.5 7.6 7H3l3.7 2.6L5.3 14 9 11.3z"/></symbol><symbol viewBox="0 0 24 24" id="filter" xmlns="http://www.w3.org/2000/svg"><path d="M10 18h4v-2h-4v2zM3 6v2h18V6H3zm3 7h12v-2H6v2z"/></symbol><symbol viewBox="0 0 24 24" id="flash" xmlns="http://www.w3.org/2000/svg"><path d="M7 2v11h3v9l7-12h-4l4-8H7z"/></symbol><symbol viewBox="0 0 24 24" id="healing" xmlns="http://www.w3.org/2000/svg"><path d="M17.7 12l4-4c.4-.4.4-1 0-1.4l-4.3-4.3c-.4-.4-1-.4-1.4 0l-4 4-4-4c-.2-.2-.4-.3-.7-.3-.3 0-.5.1-.7.3L2.2 6.6c-.3.4-.3 1.1 0 1.4l4 4-4 4c-.4.4-.4 1 0 1.4l4.3 4.3c.4.4 1 .4 1.4 0l4-4 4 4c.2.2.5.3.7.3.3 0 .5-.1.7-.3l4.3-4.3c.4-.4.4-1 0-1.4.1 0-3.9-4-3.9-4zM12 9c.6 0 1 .4 1 1s-.4 1-1 1-1-.4-1-1 .4-1 1-1zm-4.7 2L3.7 7.3l3.6-3.6 3.6 3.6L7.3 11zm2.7 2c-.6 0-1-.4-1-1s.4-1 1-1 1 .4 1 1-.4 1-1 1zm2 2c-.6 0-1-.4-1-1s.4-1 1-1 1 .4 1 1-.4 1-1 1zm2-4c.6 0 1 .4 1 1s-.4 1-1 1-1-.4-1-1 .4-1 1-1zm2.7 9.3L13 16.7l3.6-3.6 3.6 3.6-3.5 3.6z"/></symbol><symbol viewBox="0 0 24 24" id="health" xmlns="http://www.w3.org/2000/svg"><path d="M12 21.4L10.6 20C5.4 15.4 2 12.3 2 8.5 2 5.4 4.4 3 7.5 3c1.7 0 3.4.8 4.5 2.1C13.1 3.8 14.8 3 16.5 3 19.6 3 22 5.4 22 8.5c0 3.8-3.4 6.9-8.6 11.5L12 21.4z"/></symbol><symbol viewBox="0 0 24 24" id="help" xmlns="http://www.w3.org/2000/svg"><path d="M12 2C6.5 2 2 6.5 2 12s4.5 10 10 10 10-4.5 10-10S17.5 2 12 2zm1 17h-2v-2h2v2zm2.1-7.8l-.9.9c-.8.8-1.2 1.4-1.2 2.9h-2v-.5c0-1.1.4-2.1 1.2-2.8l1.2-1.3c.4-.3.6-.8.6-1.4 0-1.1-.9-2-2-2s-2 .9-2 2H8c0-2.2 1.8-4 4-4s4 1.8 4 4c0 .9-.4 1.7-.9 2.2z"/></symbol><symbol viewBox="0 0 24 24" id="image" xmlns="http://www.w3.org/2000/svg"><path d="M21 19V5c0-1.1-.9-2-2-2H5c-1.1 0-2 .9-2 2v14c0 1.1.9 2 2 2h14c1.1 0 2-.9 2-2zM8.5 13.5l2.5 3 3.5-4.5 4.5 6H5l3.5-4.5z"/></symbol><symbol viewBox="0 0 24 24" id="info" xmlns="http://www.w3.org/2000/svg"><path d="M12 2C6.5 2 2 6.5 2 12s4.5 10 10 10 10-4.5 10-10S17.5 2 12 2zm1 15h-2v-6h2v6zm0-8h-2V7h2v2z"/></symbol><symbol viewBox="0 0 24 24" id="manage" xmlns="http://www.w3.org/2000/svg"><path d="M22.7 19l-9.1-9.1c.9-2.3.4-5-1.5-6.9-2-2-5-2.4-7.4-1.3L9 6 6 9 1.6 4.7C.4 7.1.9 10.1 2.9 12.1c1.9 1.9 4.6 2.4 6.9 1.5l9.1 9.1c.4.4 1 .4 1.4 0l2.3-2.3c.5-.4.5-1.1.1-1.4z"/></symbol><symbol viewBox="0 0 24 24" id="menu" xmlns="http://www.w3.org/2000/svg"><path d="M3 18h18v-2H3v2zm0-5h18v-2H3v2zm0-7v2h18V6H3z"/></symbol><symbol viewBox="0 0 24 24" id="messages" xmlns="http://www.w3.org/2000/svg"><path d="M20 4H4c-1.1 0-2 .9-2 2v12c0 1.1.9 2 2 2h16c1.1 0 2-.9 2-2V6c0-1.1-.9-2-2-2zm0 4l-8 5-8-5V6l8 5 8-5v2z"/></symbol><symbol viewBox="0 0 24 24" id="mirror" xmlns="http://www.w3.org/2000/svg"><path d="M16 1H4c-1.1 0-2 .9-2 2v14h2V3h12V1zm3 4H8c-1.1 0-2 .9-2 2v14c0 1.1.9 2 2 2h11c1.1 0 2-.9 2-2V7c0-1.1-.9-2-2-2zm0 16H8V7h11v14z"/><path stroke="#000" stroke-width="2" stroke-miterlimit="10" d="M10 13.2L14.2 9m-1.4 5.6l2.8-2.8"/></symbol><symbol viewBox="0 0 24 24" id="monitor" xmlns="http://www.w3.org/2000/svg"><path d="M12 4.5C7 4.5 2.7 7.6 1 12c1.7 4.4 6 7.5 11 7.5s9.3-3.1 11-7.5c-1.7-4.4-6-7.5-11-7.5zM12 17c-2.8 0-5-2.2-5-5s2.2-5 5-5 5 2.2 5 5-2.2 5-5 5zm0-8c-1.7 0-3 1.3-3 3s1.3 3 3 3 3-1.3 3-3-1.3-3-3-3z"/></symbol><symbol viewBox="0 0 24 24" id="more" xmlns="http://www.w3.org/2000/svg"><path d="M12 8c1.1 0 2-.9 2-2s-.9-2-2-2-2 .9-2 2 .9 2 2 2zm0 2c-1.1 0-2 .9-2 2s.9 2 2 2 2-.9 2-2-.9-2-2-2zm0 6c-1.1 0-2 .9-2 2s.9 2 2 2 2-.9 2-2-.9-2-2-2z"/></symbol><symbol viewBox="0 0 24 24" id="more-horizontal" xmlns="http://www.w3.org/2000/svg"><path d="M0 0h24v24H0z" fill="none"/><path d="M6 10c-1.1 0-2 .9-2 2s.9 2 2 2 2-.9 2-2-.9-2-2-2zm12 0c-1.1 0-2 .9-2 2s.9 2 2 2 2-.9 2-2-.9-2-2-2zm-6 0c-1.1 0-2 .9-2 2s.9 2 2 2 2-.9 2-2-.9-2-2-2z"/></symbol><symbol viewBox="0 0 24 24" id="navigate-back" xmlns="http://www.w3.org/2000/svg"><path d="M20 11H7.8l5.6-5.6L12 4l-8 8 8 8 1.4-1.4L7.8 13H20v-2z"/></symbol><symbol id="navigate-down" viewBox="0 0 24 24" xmlns="http://www.w3.org/2000/svg"><style>.bjst0{fill:#010101}</style><path class="bjst0" d="M20 12l-1.4-1.4-5.6 5.6V4h-2v12.2l-5.6-5.6L4 12l8 8 8-8z"/></symbol><symbol viewBox="0 0 24 24" id="navigate-forward" xmlns="http://www.w3.org/2000/svg"><path d="M12 4l-1.4 1.4 5.6 5.6H4v2h12.2l-5.6 5.6L12 20l8-8-8-8z"/></symbol><symbol viewBox="0 0 24 24" id="navigate-up" xmlns="http://www.w3.org/2000/svg"><path d="M4 12l1.4 1.4L11 7.8V20h2V7.8l5.6 5.6L20 12l-8-8-8 8z"/></symbol><symbol viewBox="0 0 24 24" id="performance" xmlns="http://www.w3.org/2000/svg"><path d="M3.5 18.5l6-6 4 4L22 6.9l-1.4-1.4-7.1 8-4-4L2 17l1.5 1.5z"/></symbol><symbol viewBox="0 0 24 24" id="print"><path d="M19 8H5c-1.7 0-3 1.3-3 3v6h4v4h12v-4h4v-6c0-1.7-1.3-3-3-3zm-3 11H8v-5h8v5zm3-7c-.5 0-1-.4-1-1s.5-1 1-1 1 .4 1 1-.5 1-1 1zm-1-9H6v4h12V3z"/></symbol><symbol viewBox="0 0 24 24" id="protect" xmlns="http://www.w3.org/2000/svg"><path d="M12 1L3 5v6c0 5.5 3.8 10.7 9 12 5.2-1.3 9-6.5 9-12V5l-9-4zm0 11h7c-.5 4.1-3.3 7.8-7 8.9V12H5V6.3l7-3.1V12z"/></symbol><symbol viewBox="0 0 24 24" id="remove" xmlns="http://www.w3.org/2000/svg"><path d="M19 13H5v-2h14v2z"/></symbol><symbol viewBox="0 0 24 24" id="reports"><path d="M19 3H5c-1.1 0-2 .9-2 2v14c0 1.1.9 2 2 2h14c1.1 0 2-.9 2-2V5c0-1.1-.9-2-2-2zM9 17H7v-7h2v7zm4 0h-2V7h2v10zm4 0h-2v-4h2v4z"/></symbol><symbol viewBox="0 0 24 24" id="restore" xmlns="http://www.w3.org/2000/svg"><path d="M14 2H6c-1.1 0-2 .9-2 2v16c0 1.1.9 2 2 2h12c1.1 0 2-.9 2-2V8l-6-6zm-2 16c-2.1 0-3.8-1.2-4.6-3h1.7c.6.9 1.7 1.5 2.9 1.5 1.9 0 3.5-1.6 3.5-3.5S13.9 9.5 12 9.5c-1.4 0-2.5.8-3.1 1.9l1.6 1.6h-4V9l1.3 1.3C8.7 8.9 10.2 8 12 8c2.8 0 5 2.2 5 5s-2.2 5-5 5z"/></symbol><symbol viewBox="0 0 24 24" id="save" xmlns="http://www.w3.org/2000/svg"><path d="M17 3H5c-1.1 0-2 .9-2 2v14c0 1.1.9 2 2 2h14c1.1 0 2-.9 2-2V7l-4-4zm-5 16c-1.7 0-3-1.3-3-3s1.3-3 3-3 3 1.3 3 3-1.3 3-3 3zm3-10H5V5h10v4z"/></symbol><symbol viewBox="0 0 24 24" id="search" xmlns="http://www.w3.org/2000/svg"><path d="M15.5 14h-.8l-.3-.3c1-1.1 1.6-2.6 1.6-4.2C16 5.9 13.1 3 9.5 3S3 5.9 3 9.5 5.9 16 9.5 16c1.6 0 3.1-.6 4.2-1.6l.3.3v.8l5 5 1.5-1.5-5-5zm-6 0C7 14 5 12 5 9.5S7 5 9.5 5 14 7 14 9.5 12 14 9.5 14z"/></symbol><symbol viewBox="0 0 24 24" id="send" xmlns="http://www.w3.org/2000/svg"><path d="M2 21l21-9L2 3v7l15 2-15 2v7z"/></symbol><symbol viewBox="0 0 24 24" id="settings" xmlns="http://www.w3.org/2000/svg"><path d="M19.4 13c0-.3.1-.6.1-1s0-.7-.1-1l2.1-1.6c.2-.1.2-.4.1-.6l-2-3.5c-.1-.2-.4-.3-.6-.2l-2.5 1c-.5-.4-1.1-.7-1.7-1l-.4-2.7c.1-.2-.2-.4-.4-.4h-4c-.2 0-.5.2-.5.4l-.4 2.7c-.6.2-1.1.6-1.7 1l-2.5-1c-.2-.1-.4 0-.6.2l-2 3.5c-.1.1 0 .4.2.6L4.6 11c0 .3-.1.6-.1 1s0 .7.1 1l-2.1 1.6c-.2.1-.2.4-.1.6l2 3.5c.1.2.3.3.6.2l2.5-1c.5.4 1.1.7 1.7 1l.4 2.6c0 .2.2.4.5.4h4c.2 0 .5-.2.5-.4l.4-2.6c.6-.2 1.2-.6 1.7-1l2.5 1c.2.1.5 0 .6-.2l2-3.5c.1-.2.1-.5-.1-.6L19.4 13zM12 15.5c-1.9 0-3.5-1.6-3.5-3.5s1.6-3.5 3.5-3.5 3.5 1.6 3.5 3.5-1.6 3.5-3.5 3.5z"/></symbol><symbol viewBox="0 0 1792 1792" id="sort" xmlns="http://www.w3.org/2000/svg"><path d="M1408 1088q0 26-19 45l-448 448q-19 19-45 19t-45-19l-448-448q-19-19-19-45t19-45 45-19h896q26 0 45 19t19 45zm0-384q0 26-19 45t-45 19H448q-26 0-45-19t-19-45 19-45l448-448q19-19 45-19t45 19l448 448q19 19 19 45z"/></symbol><symbol viewBox="0 0 24 24" id="success" xmlns="http://www.w3.org/2000/svg"><path d="M12 2C6.5 2 2 6.5 2 12s4.5 10 10 10 10-4.5 10-10S17.5 2 12 2zm-2 15l-5-5 1.4-1.4 3.6 3.6 7.6-7.6L19 8l-9 9z"/></symbol><symbol viewBox="0 0 24 24" id="user-profile" xmlns="http://www.w3.org/2000/svg"><path d="M12 12c2.21 0 4-1.79 4-4s-1.79-4-4-4-4 1.79-4 4 1.79 4 4 4zm0 2c-2.67 0-8 1.34-8 4v2h16v-2c0-2.66-5.33-4-8-4z"/><path d="M0 0h24v24H0z" fill="none"/></symbol><symbol viewBox="0 0 24 24" id="violation" xmlns="http://www.w3.org/2000/svg"><path d="M12 2C6.5 2 2 6.5 2 12s4.5 10 10 10 10-4.5 10-10S17.5 2 12 2zm1 15h-2v-2h2v2zm0-4h-2V7h2v6z"/></symbol><symbol viewBox="0 0 24 24" id="warning" xmlns="http://www.w3.org/2000/svg"><path d="M1 21h22L12 2 1 21zm12-3h-2v-2h2v2zm0-4h-2v-4h2v4z"/></symbol></svg>