<?xml version="1.0" encoding="utf-8"?><svg xmlns="http://www.w3.org/2000/svg" xmlns:xlink="http://www.w3.org/1999/xlink"><symbol viewBox="0 0 24 24" id="luci-site-access-time" xmlns="http://www.w3.org/2000/svg"><path d="M12 2C6.5 2 2 6.5 2 12s4.5 10 10 10 10-4.5 10-10S17.5 2 12 2zm0 18c-4.4 0-8-3.6-8-8s3.6-8 8-8 8 3.6 8 8-3.6 8-8 8z"/><path d="M12.5 7H11v6l5.2 3.1.8-1.2-4.5-2.7V7z"/></symbol><symbol viewBox="0 0 32 32" id="luci-site-checkbox" xmlns="http://www.w3.org/2000/svg"><path d="M1 0h30a1 1 0 0 1 1 1v30a1 1 0 0 1-1 1H1a1 1 0 0 1-1-1V1a1 1 0 0 1 1-1z"/><path fill="#fff" d="M11.04 21.207l-6.065-6.065-2.065 2.051 8.131 8.131L28.496 7.869l-2.051-2.051z"/></symbol><symbol viewBox="0 0 34 32" id="luci-site-color" xmlns="http://www.w3.org/2000/svg"><path d="M25.715 16.828L8.764 0 6.091 2.654l4.513 4.48-9.765 9.694a2.792 2.792 0 0 0 0 3.991l10.428 10.353c.55.546 1.289.828 2.01.828s1.46-.282 2.01-.828l10.428-10.353a2.792 2.792 0 0 0 0-3.991zm-21.52 1.996l9.082-9.016 9.082 9.016H4.195zm26.146 2.823s-3.792 4.085-3.792 6.588c0 2.071 1.706 3.765 3.792 3.765s3.792-1.694 3.792-3.765c0-2.504-3.792-6.588-3.792-6.588z"/></symbol><symbol viewBox="0 0 24 24" id="luci-site-copy" xmlns="http://www.w3.org/2000/svg"><path d="M16 1H4c-1.1 0-2 .9-2 2v14h2V3h12V1zm3 4H8c-1.1 0-2 .9-2 2v14c0 1.1.9 2 2 2h11c1.1 0 2-.9 2-2V7c0-1.1-.9-2-2-2zm0 16H8V7h11v14z"/></symbol><symbol viewBox="0 0 24 24" id="luci-site-edit" xmlns="http://www.w3.org/2000/svg"><path d="M3 17.2V21h3.8l11-11.1L14 6.1 3 17.2zM20.7 7c.4-.4.4-1 0-1.4l-2.3-2.3c-.4-.4-1-.4-1.4 0l-1.8 1.8L19 8.9c-.1 0 1.7-1.9 1.7-1.9z"/></symbol><symbol viewBox="0 0 24 24" id="luci-site-external-link" xmlns="http://www.w3.org/2000/svg"><path d="M0 0h24v24H0z" fill="none"/><path d="M19 19H5V5h7V3H5a2 2 0 0 0-2 2v14a2 2 0 0 0 2 2h14c1.1 0 2-.9 2-2v-7h-2v7zM14 3v2h3.59l-9.83 9.83 1.41 1.41L19 6.41V10h2V3h-7z"/></symbol><symbol viewBox="0 0 24 24" id="luci-site-feedback" xmlns="http://www.w3.org/2000/svg"><path d="M20 2H4c-1.1 0-2 .9-2 2v18l4-4h14c1.1 0 2-.9 2-2V4c0-1.1-.9-2-2-2zM6 9h12v2H6V9zm8 5H6v-2h8v2zm4-6H6V6h12v2z"/></symbol><symbol viewBox="0 0 32 32" id="luci-site-iconography" xmlns="http://www.w3.org/2000/svg"><title>luci-site-iconography</title><path d="M16 16.444c2.204 0 4-1.796 4-4s-1.796-4-4-4c-2.204 0-4 1.796-4 4s1.796 4 4 4zm8 7.112c0-2.667-5.333-4-8-4s-8 1.333-8 4v1.333h16v-1.333zM28.444 0H3.555A3.566 3.566 0 0 0-.001 3.556v24.889c0 1.956 1.6 3.556 3.556 3.556h24.889c1.956 0 3.556-1.6 3.556-3.556V3.556C32 1.6 30.4 0 28.444 0zm0 28.444H3.555V3.555h24.889v24.889z"/></symbol><symbol viewBox="0 0 24 24" id="luci-site-mail-outline" xmlns="http://www.w3.org/2000/svg"><path d="M0 0h24v24H0z" fill="none"/><path d="M20 4H4c-1.1 0-1.99.9-1.99 2L2 18c0 1.1.9 2 2 2h16c1.1 0 2-.9 2-2V6c0-1.1-.9-2-2-2zm0 14H4V8l8 5 8-5v10zm-8-7L4 6h16l-8 5z"/></symbol><symbol viewBox="0 0 177.572 147.978" id="luci-site-n-mark" xmlns="http://www.w3.org/2000/svg"><path d="M0 0v147.978h69.062V59.187h39.462v88.791h69.048V0z"/></symbol><symbol viewBox="0 0 32 32" id="luci-site-navigate-forward" xmlns="http://www.w3.org/2000/svg"><path d="M16 0l-2.82 2.82L24.34 14H0v4h24.34L13.18 29.18 16 32l16-16z"/></symbol><symbol viewBox="0 0 24 24" id="luci-site-phonelink" xmlns="http://www.w3.org/2000/svg"><path d="M4 6h18V4H4c-1.1 0-2 .9-2 2v11H0v3h14v-3H4V6zm19 2h-6c-.5 0-1 .4-1 1v10c0 .5.5 1 1 1h6c.5 0 1-.5 1-1V9c0-.6-.5-1-1-1zm-1 9h-4v-7h4v7z"/></symbol><symbol viewBox="0 0 85 32" id="luci-site-space" xmlns="http://www.w3.org/2000/svg"><title>luci-site-space</title><path d="M74.667 0v21.333h-64V0H0v32h85.333V0z"/></symbol><symbol viewBox="0 0 40 24" id="luci-site-tokens" xmlns="http://www.w3.org/2000/svg"><path d="M15.231 21.2L5.763 12l9.468-9.2L12.349 0-.001 12l12.35 12 2.882-2.8zm9.959 0l9.468-9.2-9.468-9.2L28.072 0l12.35 12-12.35 12-2.882-2.8z"/></symbol><symbol viewBox="0 0 24 24" id="luci-site-trending-up" xmlns="http://www.w3.org/2000/svg"><path d="M16 6l2.3 2.3-4.9 4.9-4-4L2 16.6 3.4 18l6-6 4 4 6.3-6.3L22 12V6h-6z"/></symbol><symbol viewBox="0 0 24 24" id="luci-site-typography" xmlns="http://www.w3.org/2000/svg"><path d="M21.333 0C22.8 0 24 1.2 24 2.667v18.667c0 1.467-1.2 2.667-2.667 2.667H2.666a2.675 2.675 0 0 1-2.667-2.667V2.667C-.001 1.2 1.199 0 2.666 0h18.667zm.042 21.375V2.625H2.625v18.75h18.75z"/><path d="M15.859 18.375l-1.168-3.115H8.913l-1.147 3.115H5.625l5.235-13.5h1.905L18 18.375h-2.141zm-6.109-5.25h4.125L11.812 7.5l-2.063 5.625z"/></symbol><symbol viewBox="0 0 24 24" id="luci-site-verified-user" xmlns="http://www.w3.org/2000/svg"><path d="M12 1L3 5v6c0 5.5 3.8 10.7 9 12 5.2-1.3 9-6.5 9-12V5l-9-4zm-2 16l-4-4 1.4-1.4 2.6 2.6 6.6-6.6L18 9l-8 8z"/></symbol></svg>